<?xml version="1.0" encoding="UTF-8"?>
<svg version="1.1" xmlns="http://www.w3.org/2000/svg" width="256" height="256">
<path d="M0 0 C2.02096835 -0.00218012 4.04138421 -0.02035559 6.06225586 -0.03930664 C17.07256647 -0.05571545 25.93969883 0.29050298 34.22436523 8.18530273 C37.50015668 12.62347179 38.36693556 16.4905203 38.28686523 21.93530273 C38.2778418 22.73452148 38.26881836 23.53374023 38.25952148 24.35717773 C38.24791992 24.96045898 38.23631836 25.56374023 38.22436523 26.18530273 C38.8844458 26.1748291 39.54452637 26.16435547 40.22460938 26.15356445 C43.24532185 26.11172413 46.2659731 26.08588803 49.28686523 26.06030273 C50.32520508 26.04354492 51.36354492 26.02678711 52.43334961 26.00952148 C65.49216148 25.92660839 65.49216148 25.92660839 70.18530273 29.80639648 C70.88526367 30.70551758 70.88526367 30.70551758 71.59936523 31.62280273 C72.08147461 32.21963867 72.56358398 32.81647461 73.06030273 33.43139648 C76.28484573 38.28985221 75.6831233 44.32297499 75.84936523 49.93530273 C75.92026367 51.00780273 75.99116211 52.08030273 76.06420898 53.18530273 C76.24638672 60.97100398 76.24638672 60.97100398 73.34790039 64.41479492 C71.04677665 66.23415513 68.77678883 67.74294164 66.22436523 69.18530273 C65.42740234 69.65258789 64.63043945 70.11987305 63.80932617 70.60131836 C52.51825014 76.72422819 41.60773969 77.60374081 29.03686523 77.37280273 C27.59351996 77.3577155 26.15015928 77.3440343 24.70678711 77.33178711 C21.21231986 77.29913141 17.71844511 77.24757726 14.22436523 77.18530273 C14.07999023 76.05092773 13.93561523 74.91655273 13.78686523 73.74780273 C13.61265046 70.37753072 13.61265046 70.37753072 12.22436523 69.18530273 C10.58963642 69.09829931 8.95122468 69.07829211 7.31420898 69.08764648 C6.32485352 69.09086914 5.33549805 69.0940918 4.31616211 69.09741211 C3.27524414 69.10579102 2.23432617 69.11416992 1.16186523 69.12280273 C-0.4053125 69.12957031 -0.4053125 69.12957031 -2.00415039 69.13647461 C-4.59470136 69.14830361 -7.18514035 69.16478584 -9.77563477 69.18530273 C-10.10563477 71.82530273 -10.43563477 74.46530273 -10.77563477 77.18530273 C-14.95241388 77.28575251 -19.12851461 77.35749673 -23.30615234 77.4050293 C-24.72099077 77.42488668 -26.13575007 77.4519824 -27.55029297 77.48706055 C-40.58333381 77.80166714 -52.85295125 75.84284242 -63.77563477 68.18530273 C-64.36610596 67.8342749 -64.95657715 67.48324707 -65.56494141 67.12158203 C-68.76578404 64.92234706 -70.51088469 63.33392981 -71.40161133 59.46948242 C-71.61104425 56.20212256 -71.582757 53.01937584 -71.46313477 49.74780273 C-71.46506836 48.64114258 -71.46700195 47.53448242 -71.46899414 46.39428711 C-71.35520922 39.83007438 -70.73225178 35.48760835 -66.77563477 30.18530273 C-62.13641279 26.70588625 -58.04593463 26.05602329 -52.35375977 26.08764648 C-51.32895508 26.09086914 -50.30415039 26.0940918 -49.24829102 26.09741211 C-48.18481445 26.10579102 -47.12133789 26.11416992 -46.02563477 26.12280273 C-44.94668945 26.12731445 -43.86774414 26.13182617 -42.75610352 26.13647461 C-40.09589094 26.14824546 -37.43579112 26.16468874 -34.77563477 26.18530273 C-34.70086914 25.33967773 -34.62610352 24.49405273 -34.54907227 23.62280273 C-33.67565941 16.08747616 -32.58016308 10.37613642 -26.77563477 5.18530273 C-18.57827664 -0.3993516 -9.59434893 -0.00115748 0 0 Z M-18.77563477 16.18530273 C-20.37191956 19.00519433 -20.37191956 19.00519433 -19.77563477 26.18530273 C-5.25563477 26.18530273 9.26436523 26.18530273 24.22436523 26.18530273 C25.06656174 18.68771352 25.06656174 18.68771352 22.2109375 15.71411133 C18.54142892 13.8357117 15.4666258 13.64230977 11.43920898 13.72436523 C10.70110489 13.72528168 9.96300079 13.72619812 9.20252991 13.72714233 C7.64846328 13.73316246 6.0944074 13.74886082 4.54052734 13.77368164 C2.16582372 13.81024179 -0.20731934 13.81470034 -2.58227539 13.81420898 C-4.09596071 13.82403947 -5.6096355 13.83569619 -7.12329102 13.84936523 C-8.18435814 13.8527037 -8.18435814 13.8527037 -9.26686096 13.85610962 C-12.89501406 13.92580193 -15.74803094 14.07545152 -18.77563477 16.18530273 Z " fill="#434243" transform="translate(125.775634765625,59.814697265625)"/>
<path d="M0 0 C2.40392154 1.19609755 4.79145239 2.41327071 7.171875 3.65625 C8.3644848 4.27102452 9.55719569 4.88560295 10.75 5.5 C12.50570312 6.41265625 12.50570312 6.41265625 14.296875 7.34375 C20.74787439 10.41354108 27.1702376 11.29815031 34.21875 11.4140625 C35.33376892 11.44311172 35.33376892 11.44311172 36.47131348 11.4727478 C38.81409723 11.5318819 41.15693192 11.57865996 43.5 11.625 C45.10158233 11.66324094 46.70314543 11.70229609 48.3046875 11.7421875 C52.20296637 11.83752752 56.10134122 11.92179794 60 12 C60.66 15.63 61.32 19.26 62 23 C69.26 23 76.52 23 84 23 C84.33 19.7 84.66 16.4 85 13 C86.90536502 11.09463498 90.41140358 11.86323201 93.0078125 11.859375 C94.48569192 11.84100079 95.96355681 11.82142646 97.44140625 11.80078125 C99.76016946 11.77219044 102.0780236 11.7500101 104.39697266 11.74951172 C118.35680108 11.72828235 130.87892059 9.82108291 142.36328125 1.13671875 C144 0 144 0 146 0 C146.07615491 7.43808422 146.12864414 14.87606763 146.16479492 22.31445312 C146.17986786 24.84411374 146.20032961 27.37374829 146.22631836 29.90332031 C146.26276616 33.54238323 146.2797417 37.18110016 146.29296875 40.8203125 C146.30845261 41.94865509 146.32393646 43.07699768 146.33988953 44.23953247 C146.34109674 49.89033454 146.3137634 54.18042425 143 59 C135.82678456 66.01381065 129.24607408 66.29695832 119.70556641 66.2746582 C118.57637283 66.27976913 117.44717926 66.28488007 116.2837677 66.29014587 C112.55631183 66.30402957 108.82904113 66.30308592 105.1015625 66.30078125 C102.50613334 66.30466894 99.91070481 66.30900377 97.3152771 66.31376648 C91.87650215 66.32122615 86.43779876 66.32107794 80.99902344 66.31567383 C74.72670272 66.30963696 68.45460648 66.32194132 62.18232405 66.3432439 C56.13174998 66.36303229 50.08129287 66.36602788 44.03068161 66.36250877 C41.46390633 66.36302157 38.89712744 66.3682514 36.33037186 66.37832069 C32.73781392 66.39068423 29.14577259 66.38389317 25.55322266 66.37231445 C24.49737473 66.37995819 23.44152679 66.38760193 22.35368347 66.39547729 C15.96952967 66.35009702 9.43252943 66.1244461 4.44381142 61.5834856 C0.7699698 57.37192603 -0.12621389 54.14576008 -0.11352539 48.70239258 C-0.11341209 47.08105156 -0.11341209 47.08105156 -0.11329651 45.42695618 C-0.10813522 44.26125595 -0.10297394 43.09555573 -0.09765625 41.89453125 C-0.0962413 40.70018967 -0.09482635 39.50584808 -0.09336853 38.27531433 C-0.0877635 34.45435092 -0.07521011 30.63344575 -0.0625 26.8125 C-0.05748565 24.22461022 -0.05292263 21.63671952 -0.04882812 19.04882812 C-0.03779243 12.69919882 -0.02104936 6.34960357 0 0 Z " fill="#424242" transform="translate(55,130)"/>
<path d="M0 0 C3.96 0 7.92 0 12 0 C12 4.62 12 9.24 12 14 C8.04 14 4.08 14 0 14 C0 9.38 0 4.76 0 0 Z " fill="#383838" transform="translate(122,135)"/>
<path d="M0 0 C1 2 1 2 0 10 C14.52 10 29.04 10 44 10 C44 8.35 44 6.7 44 5 C44.33 5 44.66 5 45 5 C45 7.31 45 9.62 45 12 C29.49 12 13.98 12 -2 12 C-2 3 -2 3 0 0 Z " fill="#181817" transform="translate(106,76)"/>
<path d="M0 0 C-4.92458583 1.59641649 -9.01593201 2.24020659 -14.24609375 2.1953125 C-15.23005882 2.19106766 -15.23005882 2.19106766 -16.23390198 2.18673706 C-18.30196409 2.17565984 -20.36957173 2.15058063 -22.4375 2.125 C-23.85090515 2.11495402 -25.26431717 2.10583102 -26.67773438 2.09765625 C-30.11863394 2.07576184 -33.55927252 2.04132051 -37 2 C-36.979375 3.27875 -36.95875 4.5575 -36.9375 5.875 C-36.875 9.75 -36.875 9.75 -38 12 C-38.66 11.67 -39.32 11.34 -40 11 C-39.85957123 9.35369672 -39.71250671 7.70795821 -39.5625 6.0625 C-39.48128906 5.14597656 -39.40007812 4.22945312 -39.31640625 3.28515625 C-39 1 -39 1 -38 0 C-35.52795313 -0.17242855 -33.08104388 -0.28387777 -30.60546875 -0.3515625 C-29.86170486 -0.37471527 -29.11794098 -0.39786804 -28.35163879 -0.42172241 C-26.77380372 -0.46943697 -25.19589173 -0.51466173 -23.61791992 -0.55761719 C-21.20786907 -0.62443527 -18.79835216 -0.70230071 -16.38867188 -0.78125 C-14.85679039 -0.82619248 -13.32488965 -0.87048432 -11.79296875 -0.9140625 C-11.07304245 -0.93796051 -10.35311615 -0.96185852 -9.6113739 -0.98648071 C-6.24450327 -1.07035017 -3.21578389 -1.07417664 0 0 Z " fill="#1E1D1D" transform="translate(179,142)"/>
<path d="M0 0 C-1.28519565 2.86697492 -2.57129254 4.97607712 -5 7 C-5.66 7 -6.32 7 -7 7 C-6.91917177 11.41741893 -6.80632082 15.83345254 -6.6875 20.25 C-6.66494141 21.50425781 -6.64238281 22.75851563 -6.61914062 24.05078125 C-6.58369141 25.25605469 -6.54824219 26.46132812 -6.51171875 27.703125 C-6.48553467 28.81333008 -6.45935059 29.92353516 -6.43237305 31.06738281 C-5.9631283 34.2500863 -5.14408706 35.65373477 -3 38 C-5.46800047 36.84826645 -7.04783565 35.95216435 -9 34 C-9.48711488 29.9577652 -9.37041611 25.88070404 -9.375 21.8125 C-9.39949219 20.68779297 -9.42398438 19.56308594 -9.44921875 18.40429688 C-9.47280276 11.7182292 -9.11568764 7.37119524 -5 2 C-2 0 -2 0 0 0 Z " fill="#282827" transform="translate(64,88)"/>
<path d="M0 0 C-1.49097658 3.7952131 -3.75700849 5.61042731 -7 8 C-7 5 -7 5 -4.625 2.3125 C-2 0 -2 0 0 0 Z " fill="#2B2B2B" transform="translate(64,88)"/>
</svg>
